<?xml version="1.0" standalone="no"?>
<!DOCTYPE svg PUBLIC "-//W3C//DTD SVG 20010904//EN"
 "http://www.w3.org/TR/2001/REC-SVG-20010904/DTD/svg10.dtd">
<svg version="1.0" xmlns="http://www.w3.org/2000/svg"
 width="24.000000pt" height="24.000000pt" viewBox="0 0 24.000000 24.000000"
 preserveAspectRatio="xMidYMid meet">

<g transform="translate(0.000000,24.000000) scale(0.100000,-0.100000)"
fill="#ffffff" stroke="none">
<path d="M80 220 c-25 -25 -25 -52 -1 -74 44 -40 115 8 89 58 -22 41 -57 47
-88 16z m76 -27 c9 -34 -16 -58 -50 -49 -21 5 -26 13 -26 36 0 51 64 62 76 13z"/>
<path d="M34 96 c-17 -25 -18 -68 -2 -84 16 -16 160 -16 176 0 16 16 15 60 -2
83 -12 16 -27 20 -86 21 -61 0 -73 -3 -86 -20z m61 2 c19 -8 31 -8 52 1 29 13
46 4 57 -35 11 -36 -17 -54 -84 -54 -83 0 -110 35 -68 88 13 15 11 15 43 0z"/>
</g>
</svg>
